HIERARCHY
ROOT Hips
{
	OFFSET 0.000000 0.000000 0.000000
	CHANNELS 6 Xposition Yposition Zposition Xrotation Yrotation Zrotation
	JOINT LeftUpLeg_virtual
	{
		OFFSET 0.000000 0.000000 0.000000
		CHANNELS 3 Xrotation Yrotation Zrotation
		JOINT LeftUpLeg
		{
			OFFSET 11.394100 -6.187798 -0.413800
			CHANNELS 3 Xrotation Yrotation Zrotation
			JOINT LeftLeg
			{
				OFFSET 0.430247 -32.302673 3.732800
				CHANNELS 3 Xrotation Yrotation Zrotation
				JOINT LeftFoot
				{
					OFFSET -0.430247 -48.264931 -6.423300
					CHANNELS 3 Xrotation Yrotation Zrotation
					JOINT LeftToeBase
					{
						OFFSET 4.230900 -16.068199 23.438400
						CHANNELS 3 Xrotation Yrotation Zrotation
						JOINT LeftToe_End
						{
							OFFSET 4.510700 0.695400 19.974600
							CHANNELS 3 Xrotation Yrotation Zrotation
							End Site
							{
								OFFSET 0 0 0
							}
						}
					}
				}
			}
		}
	}
	JOINT RightUpLeg_virtual
	{
		OFFSET 0.000000 0.000000 0.000000
		CHANNELS 3 Xrotation Yrotation Zrotation
		JOINT RightUpLeg
		{
			OFFSET -11.333700 -6.187798 -0.413800
			CHANNELS 3 Xrotation Yrotation Zrotation
			JOINT RightLeg
			{
				OFFSET -0.430392 -32.302628 3.733000
				CHANNELS 3 Xrotation Yrotation Zrotation
				JOINT RightFoot
				{
					OFFSET 0.430392 -48.264973 -6.423500
					CHANNELS 3 Xrotation Yrotation Zrotation
					JOINT RightToeBase
					{
						OFFSET -4.230900 -16.068199 23.438400
						CHANNELS 3 Xrotation Yrotation Zrotation
						JOINT RightToe_End
						{
							OFFSET -4.510700 0.695400 19.974600
							CHANNELS 3 Xrotation Yrotation Zrotation
							End Site
							{
								OFFSET 0 0 0
							}
						}
					}
				}
			}
		}
	}
	JOINT Spine_virtual
	{
		OFFSET 0.000000 0.000000 0.000000
		CHANNELS 3 Xrotation Yrotation Zrotation
		JOINT Spine
		{
			OFFSET -0.002400 12.777504 0.315300
			CHANNELS 3 Xrotation Yrotation Zrotation
			JOINT Spine1
			{
				OFFSET -0.002067 5.816869 0.032633
				CHANNELS 3 Xrotation Yrotation Zrotation
				JOINT Spine1_split
				{
					OFFSET -0.002067 5.816869 0.032633
					CHANNELS 3 Xrotation Yrotation Zrotation
					JOINT Spine2
					{
						OFFSET -0.002067 5.816869 0.032633
						CHANNELS 3 Xrotation Yrotation Zrotation
						JOINT Neck_virtual
						{
							OFFSET 0.000000 0.000000 0.000000
							CHANNELS 3 Xrotation Yrotation Zrotation
							JOINT Neck
							{
								OFFSET -0.003700 21.199493 -0.826900
								CHANNELS 3 Xrotation Yrotation Zrotation
								JOINT Head
								{
									OFFSET 0.000000 20.442200 4.834800
									CHANNELS 3 Xrotation Yrotation Zrotation
									JOINT HeadTop_End
									{
										OFFSET 0.000000 34.668396 4.968400
										CHANNELS 3 Xrotation Yrotation Zrotation
										End Site
										{
											OFFSET 0 0 0
										}
									}
								}
							}
						}
						JOINT LeftShoulder_virtual
						{
							OFFSET 0.000000 0.000000 0.000000
							CHANNELS 3 Xrotation Yrotation Zrotation
							JOINT LeftShoulder
							{
								OFFSET 3.288150 8.794197 -1.372250
								CHANNELS 3 Xrotation Yrotation Zrotation
								JOINT LeftShoulder_split
								{
									OFFSET 3.288150 8.794197 -1.372250
									CHANNELS 3 Xrotation Yrotation Zrotation
									JOINT LeftArm
									{
										OFFSET 11.953299 -2.279007 -0.146200
										CHANNELS 3 Xrotation Yrotation Zrotation
										JOINT LeftForeArm
										{
											OFFSET 18.448900 0.000000 0.000000
											CHANNELS 3 Xrotation Yrotation Zrotation
											JOINT LeftHand
											{
												OFFSET 29.527798 0.000000 0.000000
												CHANNELS 3 Xrotation Yrotation Zrotation
												End Site
												{
													OFFSET 0 0 0
												}
											}
										}
									}
								}
							}
						}
						JOINT RightShoulder_virtual
						{
							OFFSET 0.000000 0.000000 0.000000
							CHANNELS 3 Xrotation Yrotation Zrotation
							JOINT RightShoulder
							{
								OFFSET -3.249400 8.794197 -1.372250
								CHANNELS 3 Xrotation Yrotation Zrotation
								JOINT RightShoulder_split
								{
									OFFSET -3.249400 8.794197 -1.372250
									CHANNELS 3 Xrotation Yrotation Zrotation
									JOINT RightArm
									{
										OFFSET -11.953299 -2.279007 -0.146200
										CHANNELS 3 Xrotation Yrotation Zrotation
										JOINT RightForeArm
										{
											OFFSET -18.448900 0.000000 0.000000
											CHANNELS 3 Xrotation Yrotation Zrotation
											JOINT RightHand
											{
												OFFSET -29.527802 0.000000 0.000000
												CHANNELS 3 Xrotation Yrotation Zrotation
												End Site
												{
													OFFSET 0 0 0
												}
											}
										}
									}
								}
							}
						}
					}
				}
			}
		}
	}
}
MOTION
Frames: 5
Frame Time: 0.03333333
-1.472651 88.485947 -0.466038 0.000000 0.000000 0.000000 3.051012 -62.092963 5.677766 -37.574845 8.007162 24.816242 40.423163 -5.012819 -7.629556 -5.482399 -3.185600 -6.509011 1.460682 1.800038 0.655224 0.000000 0.000000 0.000000 1.832734 -60.209504 5.415166 -34.268620 -8.729393 -23.953569 39.855168 1.088699 -8.402733 -14.158478 4.088755 19.976840 2.897104 -1.688134 -2.336339 0.000000 0.000000 0.000000 1.624355 -60.776662 4.444692 10.655906 1.084107 -2.041144 9.084782 -0.082512 -5.790902 0.734609 -2.710906 1.419963 0.000000 0.000000 0.000000 10.138762 0.298033 -5.819258 -18.734548 20.904462 10.195464 4.781264 29.868260 -5.618651 0.000000 0.000000 0.000000 11.143573 -0.218395 -5.495902 -6.308120 -10.987438 -4.780286 0.451123 -0.298206 -3.561888 -19.739225 8.121379 -33.974006 2.604743 -46.753823 2.266782 0.000000 0.000000 0.000000 10.178508 -0.019201 -5.396100 -4.742053 10.812180 3.811252 4.621711 2.234914 -0.461030 -35.072219 -21.009174 36.491399 -155.766357 63.071408 153.943489 0.000000 0.000000 0.000000 
-1.405736 88.478157 -0.077045 0.000000 0.000000 0.000000 2.899651 -62.144387 5.631827 -37.552831 8.194820 24.718052 40.491598 -4.874414 -7.682068 -5.583734 -3.092128 -6.380524 1.407642 1.770569 0.717921 0.000000 0.000000 0.000000 1.751180 -60.277628 5.410297 -34.156772 -8.545240 -24.133321 39.924225 1.152707 -8.356301 -14.247443 4.026837 19.886601 2.853376 -1.638615 -2.353195 0.000000 0.000000 0.000000 1.676771 -60.833121 4.513076 10.686575 1.147048 -2.070915 9.130507 -0.034985 -5.761087 0.742777 -2.832832 1.438208 0.000000 0.000000 0.000000 10.162150 0.330171 -5.837161 -18.603977 20.759283 10.306046 4.666701 29.816716 -5.618913 0.000000 0.000000 0.000000 11.176779 -0.203532 -5.464767 -6.337098 -11.148076 -4.777730 0.370065 -0.440072 -3.534637 -19.944055 8.021454 -34.004466 2.430765 -46.633359 2.305483 0.000000 0.000000 0.000000 10.072789 -0.014925 -5.374119 -4.765057 10.807640 3.798440 4.942540 2.163478 -0.477232 -34.968991 -21.108799 36.741445 -155.723464 62.823397 153.722519 0.000000 0.000000 0.000000 
-1.208783 88.500153 0.445675 0.000000 0.000000 0.000000 2.779872 -62.100278 5.604372 -37.507482 8.384921 24.482584 40.800569 -4.821928 -7.715893 -5.880830 -3.092550 -6.079485 1.295990 1.732406 0.831102 0.000000 0.000000 0.000000 1.664980 -60.224114 5.384373 -33.794400 -8.490417 -24.518868 39.676456 1.336967 -8.311930 -14.181405 3.978521 20.071093 2.846983 -1.612699 -2.315370 0.000000 0.000000 0.000000 1.745730 -60.839978 4.619694 10.680151 1.276244 -2.084752 9.171704 0.016756 -5.712432 0.755791 -2.851244 1.405016 0.000000 0.000000 0.000000 10.166711 0.365422 -5.834051 -18.501989 20.450932 10.419582 4.571792 29.617937 -5.862030 0.000000 0.000000 0.000000 11.160276 -0.199093 -5.418608 -6.381559 -11.332262 -4.871682 0.225901 -0.490456 -3.578619 -20.423572 7.665099 -33.938899 2.445420 -46.133731 2.618491 0.000000 0.000000 0.000000 9.949008 -0.009425 -5.333529 -4.816244 10.818089 3.964301 5.042322 2.077303 -0.454234 -34.634520 -21.396563 37.130449 -155.980525 63.044770 153.444311 0.000000 0.000000 0.000000 
-0.903436 88.536865 1.046101 0.000000 0.000000 0.000000 2.720678 -62.000359 5.615116 -37.485775 8.560700 24.123846 41.312631 -4.832513 -7.741073 -6.341984 -3.189449 -5.633884 1.219866 1.688505 0.982707 0.000000 0.000000 0.000000 1.602934 -60.095904 5.354732 -33.268062 -8.554605 -25.074610 39.127719 1.611897 -8.249166 -13.954333 3.935588 20.489251 2.876379 -1.604479 -2.246839 0.000000 0.000000 0.000000 1.818994 -60.800158 4.727488 10.641870 1.447282 -2.080512 9.207432 0.064093 -5.643016 0.778283 -2.822146 1.284547 0.000000 0.000000 0.000000 10.155665 0.394044 -5.801594 -18.434081 19.945594 10.553896 4.506198 29.247140 -6.332563 0.000000 0.000000 0.000000 11.099117 -0.206006 -5.349054 -6.441168 -11.510402 -5.040769 -0.035351 -0.409128 -3.625886 -21.044330 7.125109 -33.793146 2.618644 -45.415410 3.174695 0.000000 0.000000 0.000000 9.813976 -0.010184 -5.271748 -4.895034 10.843874 4.268155 4.931778 1.990000 -0.392609 -34.259006 -21.803735 37.573403 -156.440729 63.763736 153.016345 0.000000 0.000000 0.000000 
-0.522657 88.587875 1.755760 0.000000 0.000000 0.000000 2.725965 -61.884956 5.665862 -37.475161 8.728320 23.635060 41.917001 -4.843325 -7.768740 -6.922535 -3.348631 -5.056106 1.213332 1.645929 1.158214 0.000000 0.000000 0.000000 1.568593 -59.963242 5.339719 -32.666473 -8.705015 -25.746226 38.290764 1.956639 -8.155522 -13.578206 3.897075 21.096743 2.889201 -1.610401 -2.177634 0.000000 0.000000 0.000000 1.917268 -60.717964 4.822464 10.572022 1.625537 -2.057654 9.235429 0.096792 -5.549745 0.804415 -2.731780 1.159668 0.000000 0.000000 0.000000 10.137451 0.405806 -5.737071 -18.389239 19.206984 10.726960 4.468930 28.692535 -7.023727 0.000000 0.000000 0.000000 11.000969 -0.223399 -5.248407 -6.517765 -11.675233 -5.280024 -0.334852 -0.204496 -3.646660 -21.672902 6.479794 -33.599599 2.855115 -44.716938 3.896241 0.000000 0.000000 0.000000 9.673280 -0.022410 -5.189260 -4.994819 10.881906 4.670370 4.682944 1.894561 -0.235416 -34.015134 -22.206892 37.951099 -156.957652 64.980138 152.302714 0.000000 0.000000 0.000000 
